Results
version=1
nRows=5
nColumns=43
inDegrees=yes
endheader
time	pelvis_tilt	pelvis_list	pelvis_rotation	pelvis_tx	pelvis_ty	pelvis_tz	hip_flexion_r	hip_adduction_r	hip_rotation_r	knee_angle_r	ankle_angle_r	subtalar_angle_r	mtp_angle_r	hip_flexion_l	hip_adduction_l	hip_rotation_l	knee_angle_l	ankle_angle_l	subtalar_angle_l	mtp_angle_l	lumbar_extension	lumbar_bending	lumbar_rotation	neck_flexion	neck_lateral_bending	neck_rotation	arm_flex_r	arm_add_r	arm_rot_r	elbow_flex_r	pro_sup_r	wrist_flex_r	wrist_dev_r	hand_finger_flex_r	arm_flex_l	arm_add_l	arm_rot_l	elbow_flex_l	pro_sup_l	wrist_flex_l	wrist_dev_l	hand_finger_flex_l
      0.00500000	      2.70416399	      6.28296493	     -7.35180990	     -0.52375920	      0.90137766	      0.35776082	     15.74681627	     -9.21264533	     -0.13175220	    -70.16782468	      5.11677452	    -11.93719741	      0.00000000	      3.36786277	      8.38850227	     -0.82652025	    -13.81578889	     18.64602615	     -7.70241802	      0.00000000	     -2.68315655	     -8.65178261	      1.46131231	    -12.15258802	     -0.42279417	      2.14737903	    -14.72118515	    -11.31922240	     -4.15843673	     52.30698318	    -72.36816402	     -6.52874077	    -23.03539090	     -0.44701183	    -14.78311335	    -15.05192669	     -1.91134926	     47.11432838	    -37.36960375	    -21.78650085	     -8.40994771	     -4.88117756
      0.01000000	     64.13413552	    -63.62000132	     14.69813401	     -0.23427905	      0.66715049	      0.21687509	    -70.15771621	     25.71754755	     51.20841309	    -74.61659833	     24.02851537	     -8.71142355	      0.00000000	   -104.31539330	     31.36344270	    106.90332178	    -70.87226130	     59.99999993	    -90.00000018	      0.00000000	    -79.66773580	     57.43443621	     45.18830615	     16.65792601	     -0.04136264	     14.07553632	     28.73265177	   -155.82006466	     89.34152988	    135.65275260	   -118.29899023	    -12.44327685	    -13.79860642	     19.85270619	   -120.71514569	     12.36890828	      8.86008818	    142.74287907	    -15.88784668	    -29.84667206	    -10.45796529	      1.09881629
      0.01500000	      2.28350348	      6.98706583	     -5.81585962	     -0.51251048	      0.90102014	      0.35220726	     18.00500969	    -10.71362399	     -1.92142687	    -70.16641174	      7.04234684	     -9.73431083	      0.00000000	      2.46627172	      9.51414675	      0.35258646	    -12.66504120	     18.93040087	     -7.18007591	      0.00000000	     -2.64402893	     -8.98154853	     -0.65184273	    -11.82473580	     -0.96778049	      2.41984117	    -14.96665178	    -12.01288988	     -3.18347398	     50.97910085	    -76.57950194	    -11.47921730	    -18.35505667	     11.34848522	    -13.77968055	    -15.12405050	     -2.26911791	     47.77558194	    -36.91143410	    -20.84541633	     -7.65992330	      1.86035466
      0.02000000	      2.43530070	      6.97483811	     -5.20828726	     -0.50621014	      0.90185399	      0.35050994	     18.45334673	    -10.92470574	     -2.66732755	    -69.79855089	      7.94084835	     -8.79465349	      0.00000000	      1.54777382	      9.71184115	      1.63125400	    -12.12401089	     18.10864883	     -8.86395804	      0.00000000	     -2.94037858	     -8.86701440	     -1.30765440	    -11.80829115	     -0.66602413	      3.01460964	    -15.29144894	    -12.03474154	     -3.03358238	     50.87137586	    -74.72465075	    -11.10205775	    -20.71012215	      9.43436335	    -12.82892387	    -15.60654938	     -1.15393204	     47.96179366	    -38.52197451	    -21.07871308	     -8.30404605	      2.12912613
      0.02500000	     -4.47286412	      6.07969239	     -2.27692457	     -0.50693242	      0.88073150	      0.34127403	     28.17752390	    -10.84555798	     -4.80182856	    -72.82752783	      9.76963182	     -8.24001536	      0.00000000	     16.89802782	      5.30384777	     70.27673804	     -8.76651683	     -2.30872796	     90.00000018	      0.00000000	      3.33601047	     -6.77265841	     -3.45221027	     -8.84576645	     -1.46900920	      2.68763341	    -17.58391834	    -13.05720690	     -4.30842348	     54.61823734	    -74.01877676	    -11.33193735	    -23.57990262	      9.33181892	    -13.54260848	    -15.28177332	     -1.83909371	     51.76833301	    -40.10374203	    -22.45119187	    -10.18223291	      4.14780054
